<svg width="22" height="22" viewBox="0 0 22 22" fill="none" xmlns="http://www.w3.org/2000/svg">
<rect width="22" height="22" rx="11" fill="#F1F1F1"/>
<path d="M8.55177 7.34326C8.89535 7.34326 9.20452 7.37301 9.48802 7.43368C9.76977 7.49376 10.0101 7.59293 10.2131 7.73001C10.4132 7.8671 10.5695 8.0491 10.6821 8.27776C10.7912 8.50351 10.8454 8.78585 10.8454 9.11951C10.8454 9.48118 10.7638 9.78334 10.5999 10.0243C10.4348 10.2658 10.1915 10.4635 9.86719 10.6163C10.3088 10.7441 10.636 10.9675 10.853 11.2848C11.0712 11.6051 11.1779 11.9883 11.1779 12.4375C11.1779 12.8021 11.1085 13.1153 10.9691 13.3784C10.8348 13.6376 10.6399 13.8605 10.4009 14.0283C10.1535 14.2006 9.87705 14.327 9.58485 14.4016C9.27849 14.482 8.96301 14.5224 8.64627 14.5218H5.16669V7.34326H8.55177ZM8.34702 10.2436C8.62702 10.2436 8.85919 10.1771 9.04235 10.0423C9.22435 9.90934 9.31244 9.69001 9.31244 9.3896C9.31244 9.22276 9.28269 9.08509 9.22435 8.97718C9.16752 8.87336 9.08341 8.78703 8.9811 8.72751C8.87402 8.664 8.75584 8.62144 8.63285 8.6021C8.4988 8.57709 8.36263 8.56518 8.22627 8.56651H6.74752V10.2436H8.34702ZM8.4351 13.2997C8.59085 13.2997 8.73902 13.2863 8.87844 13.2548C9.01902 13.2244 9.14385 13.1754 9.25002 13.1025C9.35619 13.0325 9.44369 12.9374 9.50669 12.8161C9.57027 12.6959 9.60119 12.539 9.60119 12.3506C9.60119 11.9808 9.49677 11.7177 9.29027 11.5584C9.08319 11.4009 8.80552 11.3228 8.46544 11.3228H6.74752V13.3003L8.4351 13.2997ZM13.4314 13.2758C13.6454 13.4846 13.954 13.5896 14.3554 13.5896C14.6429 13.5896 14.8914 13.5167 15.1009 13.372C15.3074 13.2268 15.4334 13.0716 15.4818 12.9112H16.7389C16.537 13.5365 16.2308 13.9833 15.8119 14.2523C15.3984 14.5223 14.8949 14.6565 14.3069 14.6565C13.8974 14.6565 13.5288 14.5906 13.1986 14.4599C12.8817 14.3365 12.5953 14.1459 12.3592 13.9011C12.127 13.6506 11.9474 13.356 11.8313 13.0348C11.7036 12.6797 11.6404 12.3045 11.6446 11.9271C11.6446 11.5386 11.7094 11.1752 11.8365 10.8398C11.9572 10.5155 12.1426 10.2192 12.3814 9.96885C12.6176 9.72385 12.8976 9.53076 13.2237 9.38901C13.5666 9.2448 13.9356 9.17291 14.3075 9.17785C14.7474 9.17785 15.1318 9.26301 15.4619 9.43451C15.7821 9.59822 16.0597 9.8343 16.2728 10.124C16.4845 10.4116 16.6356 10.7412 16.7295 11.1104C16.8234 11.4791 16.8561 11.8641 16.8293 12.2672H13.0779C13.0784 12.6778 13.2167 13.0669 13.4314 13.2758ZM15.0717 10.5452C14.9019 10.3573 14.6149 10.2558 14.2638 10.2558C14.0357 10.2558 13.8473 10.2938 13.6956 10.3719C13.5569 10.442 13.4339 10.5394 13.3339 10.6583C13.2461 10.7663 13.1811 10.8909 13.1426 11.0247C13.109 11.1362 13.0873 11.251 13.0779 11.3671H15.4007C15.3669 11.0031 15.242 10.7342 15.0717 10.5452ZM12.7862 7.8251H15.6964V8.53384H12.7862V7.8251Z" fill="#1D1D1D"/>
</svg>
